<?xml version="1.0" encoding="UTF-8"?>
<svg viewBox="0 0 32 40.00000125" version="1.1" x="0px" y="0px" xmlns="http://www.w3.org/2000/svg">
  <g transform="translate(0,-1020.3622)">
    <path d="M 16 0 A 16 16 0 0 0 0 16 A 16 16 0 0 0 16 32 A 16 16 0 0 0 32 16 A 16 16 0 0 0 16 0 z M 11.400391 14.849609 A 1.15 1.15 0 0 1 12.550781 16 A 1.15 1.15 0 0 1 11.400391 17.150391 A 1.15 1.15 0 0 1 10.25 16 A 1.15 1.15 0 0 1 11.400391 14.849609 z M 16 14.849609 A 1.15 1.15 0 0 1 17.150391 16 A 1.15 1.15 0 0 1 16 17.150391 A 1.15 1.15 0 0 1 14.849609 16 A 1.15 1.15 0 0 1 16 14.849609 z M 20.599609 14.849609 A 1.15 1.15 0 0 1 21.75 16 A 1.15 1.15 0 0 1 20.599609 17.150391 A 1.15 1.15 0 0 1 19.449219 16 A 1.15 1.15 0 0 1 20.599609 14.849609 z" transform="translate(0,1020.3622)" fill-opacity="1" fill-rule="evenodd"/>
  </g>
</svg>
