<svg xmlns="http://www.w3.org/2000/svg" xmlns:xlink="http://www.w3.org/1999/xlink" version="1.1" x="0px" y="0px" viewBox="0 0 100 125" enable-background="new 0 0 100 100" xml:space="preserve"><g><path fill-rule="evenodd" clip-rule="evenodd" d="M37.68,44.613l0.004-0.001c2.584-1.218,4.911-2.652,6.99-4.312   c0.025-0.021,0.051-0.041,0.076-0.061c0.487-0.391,0.961-0.795,1.422-1.211c0.031-0.028,0.063-0.056,0.093-0.083   c1.443-1.315,2.756-2.754,3.943-4.322c0.044-0.06,0.088-0.121,0.133-0.181c0.332-0.445,0.653-0.9,0.964-1.365   c0.073-0.109,0.146-0.219,0.218-0.329c0.288-0.44,0.566-0.891,0.838-1.349c0.064-0.109,0.131-0.218,0.195-0.329   c0.314-0.547,0.62-1.105,0.911-1.678c0.008-0.014,0.015-0.027,0.022-0.042c0.305-0.603,0.598-1.222,0.878-1.854   c0.046-0.103,0.088-0.21,0.133-0.314c0.219-0.505,0.431-1.018,0.634-1.541c0.076-0.197,0.15-0.399,0.225-0.599   c0.166-0.446,0.327-0.899,0.481-1.359c0.076-0.224,0.151-0.449,0.225-0.676c0.151-0.471,0.295-0.952,0.436-1.437   c0.061-0.21,0.124-0.416,0.182-0.629c0.192-0.694,0.376-1.399,0.545-2.121c-4.038-0.74-7.767-1.114-11.099-1.114   c-17.944,0-22.64,10.457-27.182,20.568c-1.984,4.418-3.888,8.657-6.854,11.615C22.534,49.48,30.975,47.771,37.68,44.613   L37.68,44.613z"/><path fill-rule="evenodd" clip-rule="evenodd" d="M76.017,31.219c-0.033-0.019-0.062-0.041-0.094-0.06   c-2.878,1.427-5.34,2.452-8.764,2.452c-1.517,0-3.223-0.2-5.237-0.654c-0.741-0.168-1.207-0.905-1.04-1.646   s0.903-1.206,1.646-1.041c5.253,1.184,7.922,0.445,11.13-1.071c-0.69-0.88-1.188-1.907-1.472-3.078   c-1.024-4.213-3.533-7.453-9.204-7.951c0.085-0.25,0.099-0.527,0.024-0.801c-0.343-1.267,0.087-2.695,0.584-4.35   c0.45-1.503,0.962-3.208,0.962-5.106c0-0.76-0.616-1.377-1.377-1.377c-0.76,0-1.377,0.617-1.377,1.377   c0,1.495-0.43,2.928-0.847,4.313c-0.565,1.886-1.151,3.836-0.603,5.862c0.005,0.015,0.011,0.029,0.016,0.043   c-0.054,0.003-0.112,0.003-0.166,0.006c-2.488,11.678-7.571,20.063-15.538,25.625c-2.451,1.711-5.207,3.165-8.261,4.381   c-0.833,2.773-1.294,5.642-1.294,8.485c0,10.543,4.803,22.598,13.284,28.213c0.1,0.002,0.201,0.01,0.302,0.033l0.35,0.082   c3.45,0.799,6.177,1.43,9.421,0.213c0.714-0.268,1.506,0.094,1.773,0.807c0.267,0.711-0.094,1.506-0.806,1.771   c-1.674,0.629-3.212,0.865-4.706,0.865c-0.448,0-0.893-0.023-1.336-0.063c0.245,0.396,0.454,0.826,0.618,1.295   c0.733,2.09,3.066,3.617,5.831,3.617c2.664,0,4.927-1.416,5.745-3.389c0.741-1.789,2.085-3.035,3.923-3.641   c10.138-3.344,17.896-12.246,18.383-29.805C88.268,42.946,83.042,35.25,76.017,31.219z M80.438,57.572   c0.635-0.418,1.488-0.244,1.908,0.389l0.076,0.117c0.419,0.633,0.245,1.488-0.389,1.908c-0.234,0.154-0.498,0.227-0.759,0.227   c-0.446,0-0.885-0.217-1.149-0.617L80.05,59.48C79.63,58.846,79.804,57.992,80.438,57.572z M66.59,75.104v-0.125   c0-0.762,0.616-1.377,1.377-1.377c0.76,0,1.376,0.615,1.376,1.377v0.125c0,0.762-0.616,1.377-1.376,1.377   C67.206,76.48,66.59,75.865,66.59,75.104z M70.521,82.855c-0.233,0.502-0.73,0.797-1.249,0.797c-0.194,0-0.392-0.041-0.58-0.127   l-0.212-0.1c-0.689-0.32-0.989-1.139-0.669-1.828c0.32-0.691,1.138-0.988,1.829-0.67l0.212,0.1   C70.541,81.348,70.841,82.166,70.521,82.855z M73.373,71.996l0.01-0.145c0.053-0.76,0.706-1.32,1.47-1.277   c0.759,0.053,1.331,0.711,1.277,1.469l-0.01,0.145c-0.052,0.727-0.656,1.281-1.372,1.281c-0.033,0-0.065-0.002-0.098-0.004   C73.892,73.412,73.319,72.754,73.373,71.996z M76.878,78.428l-0.102,0.242c-0.221,0.529-0.732,0.848-1.271,0.848   c-0.177,0-0.356-0.033-0.529-0.105c-0.702-0.293-1.034-1.1-0.741-1.801l0.101-0.242c0.293-0.703,1.101-1.035,1.801-0.742   C76.838,76.92,77.17,77.725,76.878,78.428z M78.41,65.783c-0.175,0.602-0.725,0.992-1.321,0.992c-0.128,0-0.258-0.02-0.386-0.057   l-0.096-0.027c-0.729-0.213-1.149-0.977-0.937-1.707s0.978-1.148,1.707-0.938l0.096,0.029   C78.203,64.287,78.623,65.053,78.41,65.783z M81.311,73.453c-0.25,0.457-0.723,0.717-1.209,0.717c-0.224,0-0.45-0.055-0.66-0.17   l-0.195-0.105c-0.667-0.365-0.912-1.203-0.547-1.869c0.365-0.668,1.2-0.912,1.869-0.547l0.195,0.105   C81.431,71.949,81.675,72.787,81.311,73.453z M84.369,65.219c-0.211,0.547-0.732,0.883-1.284,0.883   c-0.165,0-0.333-0.031-0.496-0.094l-0.147-0.057c-0.709-0.273-1.062-1.072-0.788-1.781c0.274-0.709,1.072-1.061,1.78-0.789   l0.147,0.059C84.29,63.713,84.644,64.51,84.369,65.219z"/></g><text x="0" y="115" fill="#000000" font-size="5px" font-weight="bold" font-family="'Helvetica Neue', Helvetica, Arial-Unicode, Arial, Sans-serif">Created by Nikita Kozin</text><text x="0" y="120" fill="#000000" font-size="5px" font-weight="bold" font-family="'Helvetica Neue', Helvetica, Arial-Unicode, Arial, Sans-serif">from the Noun Project</text></svg>