<svg xmlns="http://www.w3.org/2000/svg" xmlns:xlink="http://www.w3.org/1999/xlink" version="1.1" x="0px" y="0px" viewBox="0 0 100 125" enable-background="new 0 0 100 100" xml:space="preserve"><path fill="#1e181a" d="M55.158,37.159c0.298,0,0.596-0.123,0.81-0.338c0.214-0.213,0.337-0.512,0.337-0.809  c0-0.299-0.123-0.598-0.337-0.811c-0.427-0.428-1.19-0.428-1.62,0c-0.214,0.213-0.335,0.512-0.335,0.811  c0,0.297,0.121,0.596,0.335,0.809C54.562,37.036,54.854,37.159,55.158,37.159z"/><path fill="#1e181a" d="M57.604,39.602c0.298,0,0.596-0.121,0.81-0.336s0.336-0.504,0.336-0.811c0-0.297-0.122-0.596-0.336-0.811  c-0.428-0.426-1.2-0.418-1.619,0c-0.214,0.215-0.337,0.514-0.337,0.811c0,0.307,0.123,0.596,0.337,0.811  S57.298,39.602,57.604,39.602z"/><path fill="#1e181a" d="M53.936,40.825c0.298,0,0.596-0.121,0.811-0.336c0.214-0.215,0.335-0.504,0.335-0.811  c0-0.297-0.121-0.596-0.335-0.809c-0.429-0.428-1.192-0.428-1.628,0c-0.206,0.213-0.328,0.512-0.328,0.809  c0,0.299,0.122,0.596,0.328,0.811C53.34,40.704,53.631,40.825,53.936,40.825z"/><path fill="#1e181a" d="M55.234,42.124c0,0.307,0.123,0.598,0.337,0.811c0.213,0.213,0.503,0.336,0.81,0.336  c0.298,0,0.597-0.123,0.81-0.336c0.214-0.213,0.337-0.512,0.337-0.811c0-0.297-0.123-0.596-0.337-0.811  c-0.428-0.426-1.198-0.426-1.619,0C55.357,41.528,55.234,41.827,55.234,42.124z"/><path fill="#1e181a" d="M60.049,42.659c0.298,0,0.595-0.121,0.811-0.336c0.213-0.207,0.334-0.506,0.334-0.809  c0-0.299-0.121-0.598-0.334-0.811c-0.43-0.43-1.201-0.43-1.62,0c-0.215,0.213-0.337,0.512-0.337,0.811  c0,0.303,0.122,0.602,0.337,0.809C59.452,42.538,59.743,42.659,60.049,42.659z"/><path fill="#1e181a" d="M33.485,32.297C24.26,35.69,21.849,44.678,21.751,45.059c-0.158,0.611,0.211,1.234,0.822,1.393  c0.097,0.025,0.192,0.037,0.289,0.037c0.508,0,0.973-0.342,1.108-0.855c0.021-0.082,2.232-8.217,10.307-11.184  c0.594-0.219,0.897-0.877,0.68-1.471C34.738,32.383,34.081,32.081,33.485,32.297z"/><path fill="#1e181a" d="M36.852,33.567c0.298,0,0.588-0.123,0.81-0.336c0.214-0.215,0.328-0.514,0.328-0.811  c0-0.305-0.114-0.598-0.328-0.819c-0.436-0.418-1.191-0.418-1.627,0.01c-0.207,0.212-0.328,0.505-0.328,0.81  c0,0.297,0.121,0.596,0.336,0.811C36.256,33.444,36.546,33.567,36.852,33.567z"/><path fill="#1e181a" d="M85.442,51.17c-0.144-0.145-0.337-0.224-0.541-0.224h-2.482H70.15c0.419-0.643,0.668-1.402,0.668-2.223  c0-2.072-1.544-3.789-3.543-4.061C65.069,34.379,54.611,26.744,42.5,26.744c-12.119,0-22.588,7.651-24.783,17.944  c-1.919,0.34-3.382,2.02-3.382,4.035c0,2.014,1.462,3.695,3.381,4.033C19.912,63.051,30.381,70.701,42.5,70.701  c1.896,0,3.754-0.188,5.545-0.543c3.74,1.965,8.118,3.098,12.792,3.098c13.657,0,24.794-9.666,24.828-21.545  C85.666,51.508,85.586,51.314,85.442,51.17z M81.631,52.473c-0.258,4.275-2.555,8.262-6.052,11.266l-9.101-8.236l-1.85-1.674  l-1.497-1.355h1.862h3.335H81.631z M74.371,64.705c-3.482,2.576-7.919,4.236-12.646,4.428v-6.23v-3.494v-6.146l2.338,2.113  l1.785,1.617L74.371,64.705z M42.5,68.41c-11.368,0-21.125-7.285-22.694-16.945c-0.092-0.558-0.574-0.96-1.131-0.96  c-0.031,0-0.063,0-0.095,0.002c-0.054,0.004-0.104,0.012-0.146,0.021c-0.996,0-1.806-0.809-1.806-1.805  c0-0.994,0.807-1.803,1.79-1.803c0.002,0,0.004,0,0.005,0l0.146,0.018c0.6,0.053,1.139-0.363,1.236-0.959  c1.569-9.658,11.325-16.944,22.694-16.944c11.376,0,21.133,7.292,22.695,16.96c0.099,0.617,0.742,1.033,1.359,0.941  c0.055-0.006,0.109-0.02,0.166-0.02c0.995,0,1.806,0.811,1.806,1.807s-0.811,1.805-1.806,1.805c-0.061,0-0.117-0.012-0.238-0.029  c-0.421-0.055-0.821,0.129-1.064,0.447H39.504h-2.732c-0.202,0-0.397,0.08-0.54,0.224c-0.144,0.145-0.225,0.338-0.224,0.541  c0.019,6.658,3.525,12.617,9.007,16.574C44.188,68.363,43.349,68.41,42.5,68.41z M60.196,53.262v7.936v3.143v4.799  c-2.054-0.059-4.049-0.416-5.941-0.998c-1.071-0.33-2.105-0.734-3.097-1.209c-1.3-0.621-2.532-1.348-3.655-2.184L60.196,53.262z   M46.301,63.775c-3.472-3.008-5.754-7.01-6.009-11.303H58.79L46.301,63.775z M60.837,71.729c-3.756,0-7.306-0.777-10.452-2.145  c-1.085-0.471-2.123-1.012-3.103-1.617c-5.655-3.498-9.43-9.117-9.728-15.494h1.211c0.333,6.16,4.453,11.777,10.312,15.096  c0.971,0.551,1.99,1.033,3.048,1.449c2.697,1.061,5.643,1.662,8.686,1.662c11.589,0,21.81-8.422,22.345-18.207h0.962  C83.618,63.158,73.354,71.729,60.837,71.729z"/></svg>
