<svg xmlns="http://www.w3.org/2000/svg" xmlns:xlink="http://www.w3.org/1999/xlink" version="1.1" x="0px" y="0px" viewBox="0 0 100 125" enable-background="new 0 0 100 100" xml:space="preserve"><path fill="#000000" d="M95.479,77.41c3.998-10.641,3.674-37.565-3.365-55.067c-2.959-8.629-8.715-14.738-17.396-18.086  c-6.362-2.454-12.964-2.711-19.642-1.706c-6.35,0.956-12.32,3.078-17.967,6.104c-9.809,5.256-17.871,12.503-24.25,21.597  C6.818,38.864,2.907,48.308,2.12,58.9c-0.343,4.619,0.03,9.184,1.387,13.633c2.326,7.617,6.868,13.494,13.855,17.385  c2.69,1.498,5.501,2.52,8.406,3.17c6.286,2.073,18.334,4.069,30.593,4.069c9.619,0,19.354-1.228,26.509-4.612  C84.004,92.009,95,93,96,90C98.628,82.116,94.816,79.172,95.479,77.41z M87.788,34.229c0.011,4.386-0.761,8.647-2.062,12.82  c-0.299,0.954-1.1,1.455-1.945,1.854c-1.479,0.695-3.031,0.596-4.602,0.417c-4.039-0.465-8.084-0.897-12.127-1.347  c-3.554-0.396-7.105-0.801-10.66-1.2c-1.143-0.127-2.285-0.247-3.427-0.373c-0.159-0.018-0.319-0.048-0.479-0.073  c-0.004-0.034-0.008-0.067-0.012-0.101c1.188-0.494,2.377-0.993,3.566-1.483c9.436-3.889,18.867-7.784,28.312-11.646  c0.64-0.261,1.385-0.374,2.076-0.362C87.372,32.75,87.786,33.298,87.788,34.229z M51.496,49.398  c-0.128-0.128-0.243-0.268-0.464-0.513c0.286-0.02,0.438-0.054,0.587-0.038c7.393,0.812,14.785,1.627,22.178,2.446  c2.245,0.249,4.493,0.484,6.73,0.79c0.533,0.074,1.084,0.332,1.537,0.64c0.748,0.506,0.904,1.342,0.502,2.149  c-2.239,4.485-5.023,8.608-8.289,12.41c-0.957,1.112-2.567,1.389-3.853,0.647c-0.483-0.277-0.934-0.641-1.331-1.035  C63.223,61.07,57.359,55.234,51.496,49.398z M67.555,74.02c-3.513,3.072-7.318,5.728-11.453,7.9  c-0.328,0.172-0.688,0.303-1.047,0.403c-1.188,0.331-2.08-0.097-2.412-1.293c-0.252-0.916-0.347-1.882-0.457-2.833  c-0.447-3.793-0.873-7.59-1.309-11.387c-0.438-3.812-0.878-7.627-1.317-11.44c-0.152-1.326-0.304-2.654-0.453-3.981  c-0.013-0.129-0.001-0.258-0.001-0.544c0.772,0.753,1.449,1.4,2.111,2.061c5.085,5.064,10.168,10.132,15.248,15.202  c0.544,0.545,1.108,1.084,1.561,1.701C69.048,71.201,68.857,72.877,67.555,74.02z M82.215,16.535  c2.334,3.052,3.885,6.472,4.719,10.208c0.096,0.427-0.133,1.011-0.384,1.415c-0.887,1.426-2.249,2.323-3.759,2.949  c-8.766,3.637-17.541,7.241-26.314,10.856c-1.299,0.535-2.599,1.067-3.898,1.599c-0.045-0.055-0.09-0.109-0.135-0.164  c0.143-0.096,0.303-0.171,0.42-0.291c8.324-8.332,16.641-16.668,24.964-25c0.958-0.959,2.036-1.724,3.421-1.955  C81.657,16.085,81.941,16.178,82.215,16.535z M64.641,8.742c0.248-0.281,0.518-0.548,0.799-0.795  c0.666-0.588,1.354-0.823,2.311-0.578c3.54,0.912,6.812,2.347,9.759,4.525c0.407,0.3,0.546,0.62,0.453,1.099  c-0.235,1.246-0.933,2.248-1.687,3.216c-0.299,0.385-0.635,0.746-0.979,1.092c-4.869,4.883-9.744,9.761-14.616,14.642  c-3.113,3.12-6.228,6.241-9.338,9.367c-0.144,0.145-0.251,0.329-0.375,0.495c-0.061-0.042-0.121-0.082-0.181-0.123  c0.522-1.282,1.045-2.564,1.567-3.846c3.392-8.316,6.791-16.628,10.17-24.95C63.107,11.438,63.582,9.943,64.641,8.742z   M44.816,11.352c0.156-0.422,0.32-0.845,0.528-1.242c0.406-0.779,1.006-1.272,1.894-1.541c4.262-1.292,8.598-2.042,13.058-2.068  c0.575-0.003,0.825,0.228,0.937,0.734c0.268,1.23,0.002,2.41-0.449,3.531c-2.236,5.544-4.508,11.073-6.768,16.607  c-1.904,4.664-3.808,9.328-5.714,13.992c-0.068,0.167-0.151,0.328-0.285,0.616c-0.247-2.112-0.479-4.086-0.707-6.06  c-0.398-3.461-0.794-6.922-1.191-10.383c-0.434-3.778-0.868-7.557-1.301-11.336C44.708,13.251,44.468,12.299,44.816,11.352z   M26.732,20.297c3.876-3.326,8.044-6.208,12.616-8.493c0.964-0.482,1.807-0.298,2.232,0.708c0.381,0.899,0.593,1.899,0.717,2.875  c0.555,4.35,1.061,8.708,1.57,13.064c0.476,4.077,0.932,8.155,1.396,12.232c0.075,0.655,0.159,1.309,0.224,1.964  c0.017,0.169-0.022,0.343-0.036,0.514c-0.092,0.049-0.183,0.098-0.275,0.146c-0.754-0.809-1.487-1.642-2.27-2.425  c-4.225-4.223-8.458-8.438-12.697-12.648c-1.055-1.047-2.167-2.039-3.197-3.109c-0.628-0.653-1.112-1.436-1.21-2.375  C25.702,21.783,25.935,20.98,26.732,20.297z M11.901,39.139c2.355-4.619,5.276-8.851,8.699-12.741  c0.653-0.741,1.976-1.04,2.957-0.524c0.654,0.344,1.272,0.813,1.8,1.334c3.65,3.595,7.273,7.219,10.906,10.833  c2.23,2.22,4.455,4.442,6.691,6.655c0.143,0.142,0.362,0.207,0.548,0.307c-0.067,0.102-0.134,0.202-0.201,0.303  c-0.628-0.058-1.255-0.107-1.882-0.176c-5.407-0.597-10.814-1.193-16.22-1.799c-3.572-0.4-7.145-0.791-10.709-1.25  c-0.703-0.09-1.418-0.389-2.04-0.745C11.605,40.852,11.457,40.01,11.901,39.139z M6.545,59.814c0-4.445,0.796-8.76,2.207-12.959  c0.169-0.506,0.647-0.972,1.093-1.31c1.093-0.832,2.357-1.092,3.731-0.935c5.257,0.603,10.515,1.184,15.774,1.77  c4.192,0.466,8.384,0.928,12.576,1.393c0.051,0.005,0.101,0.02,0.291,0.059c-3.192,1.319-6.246,2.584-9.303,3.844  c-7.314,3.014-14.621,6.049-21.958,9.008c-0.946,0.381-2.046,0.448-3.084,0.508C6.97,61.242,6.545,60.71,6.545,59.814z   M12.818,77.84c-0.441,0.087-0.81-0.156-1.095-0.549C9.6,74.374,8.166,71.145,7.4,67.631c-0.107-0.488,0.068-1.13,0.317-1.59  c0.779-1.438,2.09-2.285,3.567-2.891c5.145-2.111,10.296-4.213,15.44-6.325c4.903-2.013,9.801-4.035,14.7-6.054  c0.167-0.067,0.34-0.125,0.51-0.188c0.061,0.072,0.123,0.145,0.183,0.218c-0.181,0.103-0.397,0.168-0.539,0.31  c-7.698,7.703-15.395,15.41-23.081,23.129c-1.119,1.125-2.216,2.277-3.653,2.988C14.219,77.538,13.508,77.703,12.818,77.84z   M29.307,85.693c-0.354,0.33-0.757,0.617-1.172,0.871c-0.617,0.371-1.262,0.44-1.995,0.254c-3.131-0.799-6.036-2.082-8.691-3.924  c-0.997-0.692-1.202-1.285-0.817-2.453c0.405-1.231,1.197-2.207,2.094-3.107c4.324-4.336,8.652-8.666,12.978-13  c3.846-3.854,7.693-7.707,11.535-11.564c0.158-0.158,0.262-0.369,0.391-0.555c0.061,0.047,0.122,0.096,0.182,0.143  c-0.381,0.933-0.761,1.863-1.142,2.797c-3.554,8.695-7.099,17.394-10.671,26.08C31.334,82.854,30.621,84.464,29.307,85.693z   M33.149,85.021c0.388-1.252,0.938-2.453,1.433-3.672c3.898-9.551,7.8-19.1,11.702-28.648c0.076-0.189,0.145-0.383,0.218-0.572  c0.027,0.001,0.056,0.002,0.083,0.003c0.833,7.181,1.665,14.359,2.496,21.539c0.259,2.244,0.592,4.483,0.742,6.734  c0.108,1.629-0.288,3.206-1.482,4.422c-0.405,0.413-0.958,0.758-1.507,0.937c-3.853,1.252-7.814,1.904-11.863,2.031  C33.411,87.844,32.621,86.729,33.149,85.021z M92.137,81.052c0.598,1.599,1.268,3.392,0.357,6.73  c-1.613,0.436-5.212,0.515-6.676,0.547c-2.441,0.054-3.557,0.078-4.659,0.601c-5.847,2.766-14.421,4.229-24.798,4.229  c-3.852,0-7.646-0.206-11.209-0.543c2.535-0.605,5.023-1.4,7.461-2.391c12.968-5.259,23.236-13.871,31.101-25.363  c4.587-6.704,7.849-13.935,9.364-21.798c1.704,13.071,1.084,26.48-1.344,32.94C90.991,77.982,91.652,79.756,92.137,81.052z   M87.68,77.111c0.553,0,1.002,0.447,1.002,1c0,0.554-0.449,1.002-1.002,1.002s-1-0.448-1-1.002  C86.68,77.559,87.127,77.111,87.68,77.111z M71.68,88.111c0.553,0,1.002,0.447,1.002,1c0,0.554-0.449,1.002-1.002,1.002  s-1-0.448-1-1.002C70.68,88.559,71.127,88.111,71.68,88.111z M78.68,79.111c0.553,0,1.002,0.447,1.002,1  c0,0.554-0.449,1.002-1.002,1.002s-1-0.448-1-1.002C77.68,79.559,78.127,79.111,78.68,79.111z M89.68,64.111  c0.553,0,1.002,0.447,1.002,1c0,0.554-0.449,1.002-1.002,1.002s-1-0.448-1-1.002C88.68,64.559,89.127,64.111,89.68,64.111z"/><text x="0" y="115" fill="#000000" font-size="5px" font-weight="bold" font-family="'Helvetica Neue', Helvetica, Arial-Unicode, Arial, Sans-serif">Created by Mario Bieh</text><text x="0" y="120" fill="#000000" font-size="5px" font-weight="bold" font-family="'Helvetica Neue', Helvetica, Arial-Unicode, Arial, Sans-serif">from the Noun Project</text></svg>