<svg xmlns="http://www.w3.org/2000/svg" xmlns:xlink="http://www.w3.org/1999/xlink" version="1.1" x="0px" y="0px" viewBox="0 0 100 125" enable-background="new 0 0 100 100" xml:space="preserve"><g><path d="M67.915,8.995c4.684,0,8.475,3.795,8.475,8.477s-3.791,8.477-8.475,8.477s-8.474-3.795-8.474-8.477   S63.231,8.995,67.915,8.995z"/><path d="M55.272,46.043V39.4h2.65v6.643h20.079l0.003-6.643h2.604v6.643h6.634v-7.185c0-5.627-3.31-11.146-9.895-11.146l-19-0.004   c-5.999,0-9.761,4.891-9.761,10.996v7.338H55.272z"/></g><path d="M11.688,23v23.042H22.68V23H11.688z M20.68,44.042h-6.992v-7.043h6.992V44.042z M13.688,34.999v-2h6.992v2H13.688z   M13.688,30.999v-2h6.992v2H13.688z M13.688,27v-2h6.992v2H13.688z"/><path stroke="#000000" stroke-width="2.3998" d="M52.626,78.104"/><path d="M1.114,49.247v9.826h9.37v37.26h79.018v-37.26h8.956v-9.826H1.114z M50.081,88.027c-6.852,0-13.146-3.24-16.033-8.257  l-0.066-0.099c-0.229-0.289-2.277-2.835-3.989-3.271c-0.797-0.202-1.609-1.303-1.609-2.18v-0.927c0-0.878,0.812-1.979,1.609-2.181  c1.707-0.434,3.806-2.978,4.039-3.266l0.07-0.102c2.909-4.961,9.182-8.166,15.979-8.166c6.751,0,13.004,3.173,15.931,8.085  l0.075,0.106c0.248,0.296,2.472,2.909,4.171,3.342c0.798,0.202,1.61,1.303,1.61,2.181v0.927c0,0.877-0.812,1.978-1.61,2.18  c-1.675,0.426-3.894,3.139-4.376,3.755C62.862,85.012,56.808,88.027,50.081,88.027z"/><path d="M65.14,75.7c-0.83,0-1.5-0.67-1.5-1.5s0.67-1.5,1.5-1.5s1.5,0.67,1.5,1.5S65.97,75.7,65.14,75.7L65.14,75.7z M60.14,75.7  c-0.83,0-1.5-0.67-1.5-1.5s0.67-1.5,1.5-1.5s1.5,0.67,1.5,1.5S60.97,75.7,60.14,75.7L60.14,75.7z M55.14,75.7  c-0.83,0-1.5-0.67-1.5-1.5s0.67-1.5,1.5-1.5s1.5,0.67,1.5,1.5S55.97,75.7,55.14,75.7L55.14,75.7z"/><path d="M61.91,70.97c-0.83,0-1.5-0.67-1.5-1.5s0.67-1.5,1.5-1.5s1.5,0.67,1.5,1.5S62.74,70.97,61.91,70.97L61.91,70.97z   M56.91,70.97c-0.83,0-1.5-0.67-1.5-1.5s0.67-1.5,1.5-1.5s1.5,0.67,1.5,1.5S57.74,70.97,56.91,70.97L56.91,70.97z"/><path d="M62.03,80.5c-0.83,0-1.5-0.67-1.5-1.5s0.67-1.5,1.5-1.5c0.829,0,1.5,0.67,1.5,1.5S62.859,80.5,62.03,80.5L62.03,80.5z   M57.03,80.5c-0.83,0-1.5-0.67-1.5-1.5s0.67-1.5,1.5-1.5c0.829,0,1.5,0.67,1.5,1.5S57.859,80.5,57.03,80.5L57.03,80.5z M52.03,80.5  c-0.82,0-1.5-0.67-1.5-1.5s0.68-1.5,1.5-1.5c0.829,0,1.5,0.67,1.5,1.5S52.859,80.5,52.03,80.5L52.03,80.5z"/><path d="M56.02,66.08c-0.819,0-1.5-0.681-1.5-1.5c0-0.83,0.681-1.5,1.5-1.5c0.83,0,1.5,0.67,1.5,1.5  C57.52,65.399,56.85,66.08,56.02,66.08L56.02,66.08z"/><path d="M55.41,85.14c-0.82,0-1.5-0.67-1.5-1.5s0.68-1.5,1.5-1.5c0.83,0,1.5,0.67,1.5,1.5S56.24,85.14,55.41,85.14L55.41,85.14z   M50.41,85.14c-0.82,0-1.5-0.67-1.5-1.5s0.68-1.5,1.5-1.5c0.83,0,1.5,0.67,1.5,1.5S51.24,85.14,50.41,85.14L50.41,85.14z   M45.41,85.14c-0.82,0-1.5-0.67-1.5-1.5s0.68-1.5,1.5-1.5c0.83,0,1.5,0.67,1.5,1.5S46.24,85.14,45.41,85.14L45.41,85.14z"/><path d="M49.014,24.5c0-3.532-2.834-6.41-6.347-6.492V12.5h-4.676l1.659-8.9l-1.967-0.366L35.956,12.5h-9.738v33.543h16.449V30.992  C46.18,30.91,49.014,28.032,49.014,24.5z M34.029,22.833h-5.812V14.5h7.365L34.029,22.833z M40.667,22.833h-4.603l1.554-8.333h3.049  V22.833z M42.667,28.984v-8.969c2.409,0.083,4.347,2.056,4.347,4.484S45.076,28.901,42.667,28.984z"/><text x="0" y="115" fill="#000000" font-size="5px" font-weight="bold" font-family="'Helvetica Neue', Helvetica, Arial-Unicode, Arial, Sans-serif">Created by Luis Prado</text><text x="0" y="120" fill="#000000" font-size="5px" font-weight="bold" font-family="'Helvetica Neue', Helvetica, Arial-Unicode, Arial, Sans-serif">from the Noun Project</text></svg>