<svg xmlns="http://www.w3.org/2000/svg" xmlns:xlink="http://www.w3.org/1999/xlink" version="1.1" x="0px" y="0px" viewBox="0 0 100 125" enable-background="new 0 0 100 100" xml:space="preserve"><g><path d="M76.27,28.887c-1.693-0.972-2.785-2.426-3.247-4.321c-1.378-5.673-5.028-8.762-10.848-9.211   c-0.108-1.143,0.267-2.409,0.698-3.844c0.461-1.536,0.983-3.277,0.983-5.218c0-0.776-0.63-1.406-1.407-1.406   c-0.04,0-0.078,0.009-0.118,0.012c-0.609-0.057-1.206,0.284-1.439,0.882c-0.993,2.538-2.604,3.788-4.632,5.189   C24.585,11.271,20.983,27.524,18.09,40.592c-1.412,6.376-2.63,11.883-6.655,14.911c-0.527,0.396-0.708,1.106-0.435,1.707   c0.231,0.509,0.738,0.824,1.28,0.824c0.097,0,0.195-0.01,0.293-0.03c7.793-1.655,14.472-3.766,20.13-6.353   c-0.22,1.474-0.342,2.95-0.342,4.419c0,11.615,5.759,26.154,16.767,31.47c1.291,0.623,2.148,1.583,2.624,2.937   c0.974,2.773,3.901,4.637,7.286,4.637c3.214,0,6.095-1.741,7.169-4.331c0.601-1.448,1.66-2.432,3.149-2.922   c8.688-2.865,19.167-10.699,19.749-31.752C89.556,39.952,82.373,32.387,76.27,28.887z M59.858,11.798   c-0.321,1.155-0.567,2.334-0.503,3.539c-0.521,0.034-1.022,0.094-1.51,0.169c0.039-0.744,0.065-1.499,0.078-2.265   C58.59,12.78,59.24,12.312,59.858,11.798z M20.838,41.2c2.755-12.447,5.882-26.507,33.581-27.373   c0.019,0.032,0.032,0.066,0.055,0.098c0.157,0.225,0.372,0.382,0.607,0.481C54.306,35.609,42.567,47.744,16.387,54.24   C18.742,50.667,19.768,46.031,20.838,41.2z M86.295,56.031c-0.427,15.371-6.588,25.453-17.819,29.156   c-2.269,0.748-3.951,2.31-4.866,4.517c-0.645,1.553-2.48,2.596-4.57,2.596c-2.157,0-4.062-1.134-4.632-2.756   c-0.093-0.265-0.197-0.52-0.311-0.767c1.064,0.186,2.117,0.305,3.191,0.305c1.527,0,3.099-0.242,4.809-0.884   c0.728-0.272,1.096-1.084,0.822-1.812c-0.272-0.728-1.083-1.096-1.811-0.822c-3.315,1.242-6.102,0.598-9.627-0.22l-0.357-0.082   c-0.119-0.028-0.237-0.034-0.354-0.031c-0.139-0.076-0.273-0.155-0.417-0.225c-9.964-4.812-15.177-18.199-15.177-28.937   c0-1.967,0.24-3.97,0.682-5.959c4.762-2.509,8.697-5.415,11.848-8.749c5.674-6.006,8.939-13.561,9.917-22.957   c0.92-0.193,1.922-0.302,3.029-0.302c5.468,0,8.439,2.198,9.638,7.127c0.29,1.191,0.782,2.269,1.441,3.223   c-4.316,1.903-9.02,2.303-13.997,1.181c-0.76-0.171-1.511,0.306-1.682,1.063s0.306,1.511,1.063,1.682   c2.126,0.479,4.115,0.678,5.957,0.678c4.543,0,8.178-1.215,10.714-2.459c0.343,0.261,0.699,0.508,1.084,0.729   C82.779,35.864,86.623,44.176,86.295,56.031z"/><path d="M81.33,63.773c-0.281,0.725,0.079,1.539,0.804,1.82l0.149,0.058c0.167,0.065,0.34,0.096,0.508,0.096   c0.564,0,1.097-0.342,1.313-0.898c0.281-0.725-0.078-1.539-0.803-1.82l-0.15-0.059C82.427,62.689,81.611,63.05,81.33,63.773z"/><path d="M75.688,76.501c-0.718-0.295-1.542,0.046-1.838,0.764l-0.103,0.249c-0.297,0.718,0.046,1.54,0.764,1.837   c0.176,0.072,0.357,0.107,0.536,0.107c0.553,0,1.077-0.328,1.301-0.871l0.103-0.248C76.747,77.62,76.405,76.798,75.688,76.501z"/><path d="M74.273,73.276c0.732,0,1.35-0.567,1.402-1.309l0.01-0.147c0.055-0.775-0.529-1.448-1.305-1.502   c-0.776-0.047-1.448,0.529-1.502,1.306l-0.011,0.146c-0.054,0.775,0.53,1.448,1.306,1.502   C74.207,73.274,74.24,73.276,74.273,73.276z"/><path d="M77.059,63.679l-0.098-0.028c-0.744-0.216-1.527,0.211-1.744,0.957s0.211,1.527,0.957,1.744l0.098,0.028   c0.131,0.038,0.264,0.057,0.395,0.057c0.609,0,1.171-0.399,1.35-1.014C78.232,64.677,77.805,63.896,77.059,63.679z"/><path d="M79.774,59.108c0.271,0.405,0.716,0.624,1.169,0.624c0.27,0,0.542-0.077,0.782-0.238c0.646-0.433,0.818-1.307,0.385-1.952   l-0.078-0.117c-0.434-0.646-1.307-0.819-1.952-0.386c-0.646,0.433-0.818,1.307-0.385,1.952L79.774,59.108z"/><path d="M68.751,74.947v-0.129c0-0.776-0.631-1.406-1.407-1.406c-0.777,0-1.407,0.63-1.407,1.406v0.129   c0,0.776,0.63,1.406,1.407,1.406C68.12,76.354,68.751,75.724,68.751,74.947z"/><path d="M69.268,80.997l-0.217-0.1c-0.703-0.325-1.541-0.018-1.867,0.688c-0.325,0.706-0.018,1.542,0.688,1.867l0.217,0.101   c0.19,0.088,0.391,0.13,0.589,0.13c0.531,0,1.04-0.304,1.278-0.818C70.281,82.158,69.974,81.323,69.268,80.997z"/><path d="M78.309,71.805c-0.37,0.683-0.118,1.536,0.564,1.908l0.2,0.108c0.213,0.116,0.443,0.171,0.67,0.171   c0.499,0,0.982-0.266,1.238-0.735c0.371-0.682,0.118-1.536-0.564-1.908l-0.199-0.108C79.535,70.87,78.681,71.122,78.309,71.805z"/></g><text x="0" y="115" fill="#000000" font-size="5px" font-weight="bold" font-family="'Helvetica Neue', Helvetica, Arial-Unicode, Arial, Sans-serif">Created by Nikita Kozin</text><text x="0" y="120" fill="#000000" font-size="5px" font-weight="bold" font-family="'Helvetica Neue', Helvetica, Arial-Unicode, Arial, Sans-serif">from the Noun Project</text></svg>