<svg xmlns="http://www.w3.org/2000/svg" xmlns:xlink="http://www.w3.org/1999/xlink" version="1.1" x="0px" y="0px" viewBox="0 0 612 612" enable-background="new 0 0 612 612" xml:space="preserve"><g display="none"><g display="inline"><g><path fill="#1e181a" d="M514.084,452.966l-17.987-0.006l0.024-35.979l17.979,0.007c14.881,0,26.989-12.112,26.989-26.996v-71.967     c0-14.884-12.107-26.996-27.002-26.996h-17.993v-35.98h17.987c34.729,0,62.979,28.257,62.979,62.976v71.967     C577.066,424.709,548.815,452.966,514.084,452.966L514.084,452.966z"/><path fill="#1e181a" d="M0,580.521c0,24.862,19.964,44.979,44.64,44.979h522.713c24.677,0,44.646-20.117,44.646-44.979H0z"/><path fill="#1e181a" d="M260.362,79.223c20.19,60.583-31.996,76.746-31.996,76.746l-0.239,0.374     c0.526-0.881,12.638-22.118-1.903-65.743c-20.19-60.583,31.996-76.74,31.996-76.74l0.239-0.367     C257.926,14.368,245.827,35.617,260.362,79.223z"/><path fill="#1e181a" d="M323.063,79.223c20.188,60.583-31.996,76.746-31.996,76.746l-0.239,0.374     c0.521-0.881,12.632-22.118-1.903-65.743c-20.196-60.583,32.002-76.74,32.002-76.74l0.245-0.367     C320.633,14.368,308.527,35.617,323.063,79.223z"/><path fill="#1e181a" d="M385.764,79.223c20.19,60.583-31.986,76.746-31.986,76.746l-0.238,0.374     c0.52-0.881,12.632-22.118-1.903-65.743c-20.188-60.583,32.002-76.74,32.002-76.74l0.238-0.367     C383.34,14.368,371.234,35.617,385.764,79.223z"/><path fill="#1e181a" d="M135.065,192.078v287.878c0,39.78,32.192,71.966,71.966,71.966h197.925     c39.774,0,71.967-32.186,71.967-71.966V192.078H135.065z M422.943,470.959c0,4.964-4.033,8.997-8.997,8.997     c-4.979,0-8.996-4.033-8.996-8.997V237.054c0-4.963,4.015-8.997,8.996-8.997c4.964,0,8.997,4.033,8.997,8.997V470.959z"/></g></g><g display="inline"><g><path fill="#1e181a" d="M361.756,194.489c-2.75,0-5-2.25-5-5V170.25c0-2.75-2.25-5-5-5H42.746c-2.75,0-5,2.25-5,5v19.239     c0,2.75,0,5.212,0,5.472c0,0.26,0,2.722,0,5.472v10.279c0,2.75,2.25,5,5,5h294.39c2.75,0,5,2.25,5,5v19.239c0,2.75,2.25,5,5,5     h231.46c2.75,0,5,2.25,5,5v280.506c0,2.75,2.25,5,5,5h4.619c2.75,0,5-2.25,5-5V199.489c0-2.75-2.25-5-5-5H361.756z"/></g><path fill="#1e181a" d="M564.749,258.033h-231.46c-2.75,0-5-2.25-5-5v-19.239c0-2.75-2.25-5-5-5H14.279c-2.75,0-5,2.25-5,5v19.239    c0,2.75,0,5.212,0,5.472c0,0.259,0,2.721,0,5.471V594c0,2.75,2.25,5,5,5h30.784c2.75,0,4.992-0.282,4.981-0.627c0,0,0,0,0-0.316    c0-26.307,16.469-47.631,36.785-47.631c20.315,0,36.785,21.324,36.785,47.631c0,0.316,0,0.316,0,0.316    c-0.01,0.345,2.231,0.627,4.981,0.627h318.27c2.75,0,4.992-0.282,4.979-0.627c0,0,0,0,0-0.316    c0-26.307,16.473-47.631,36.785-47.631c20.314,0,36.784,21.324,36.784,47.631c0,0.316,0,0.316,0,0.316    c-0.01,0.345,2.229,0.627,4.979,0.627h34.352c2.75,0,5-2.25,5-5V263.033C569.749,260.283,567.499,258.033,564.749,258.033z     M183.504,466.905H51.463c0-0.117-0.003-0.235-0.003-0.354c0-36.002,17.411-66.751,41.982-79.124    c-8.416-7.192-13.758-17.877-13.758-29.815c0-21.657,17.557-39.214,39.214-39.214c21.657,0,39.214,17.557,39.214,39.214    c0,12.443-5.802,23.524-14.841,30.708c23.649,12.925,40.236,43.084,40.236,78.231C183.508,466.67,183.505,466.788,183.504,466.905    z M265.095,395.456v-8.864c0-2.75,2.25-5,5-5h106.014c2.75,0,5,2.25,5,5v8.864c0,2.75-2.25,5-5,5H270.095    C267.345,400.456,265.095,398.206,265.095,395.456z M536.736,439.787c0,2.75-2.25,5-5,5H359.699c-2.75,0-5-2.25-5-5v-6.271    c0-2.75,2.25-5,5-5h172.037c2.75,0,5,2.25,5,5V439.787z M536.736,395.456c0,2.75-2.25,5-5,5h-128.65c-2.75,0-5-2.25-5-5v-8.864    c0-2.75,2.25-5,5-5h128.65c2.75,0,5,2.25,5,5V395.456z M540.509,347.353c0,2.75-2.25,5-5,5H270.095c-2.75,0-5-2.25-5-5v-6.035    c0-2.75,2.25-5,5-5h265.414c2.75,0,5,2.25,5,5V347.353L540.509,347.353z"/></g></g><path fill="#1e181a" d="M230.477,428.972c-49.158-71.834-110.564-161.865-112.075-164.107l-8.009-11.885  c-26.91-39.931-8.632-99.323,40.83-132.659c49.462-33.334,111.373-27.986,138.285,11.946l8.011,11.884  c1.51,2.242,62.659,92.446,111.32,164.617l67.164-45.266c-42.92-64.67-110.239-164.975-113.254-169.449l-15.022-22.288  C297.262-3.112,185.345-15.96,97.752,43.074C10.161,102.105-19.937,210.662,30.527,285.54l15.02,22.287  c3.016,4.475,70.854,104.429,114.77,168.426L230.477,428.972z"/><path fill="#1e181a" d="M413.845,316.195c11.475,17.03,22.086,32.804,30.825,45.845l66.415-44.76  c-0.913-1.995-13.1-20.609-30.132-46.313L413.845,316.195z"/><path fill="#1e181a" d="M165.39,483.639c17.462,25.412,30.165,43.678,31.672,45.275l69.714-46.986  c-8.89-12.938-19.638-28.62-31.239-45.563L165.39,483.639z"/><polygon fill="#1e181a" points="506.536,345.534 534.141,391.236 495.427,380.035 553.345,451.451 511.021,449.17 581.288,523.697   488.381,442.646 530.895,441.397 476.114,372.329 516.778,377.649 "/><polygon fill="#1e181a" points="228.669,555.708 277.851,576.487 261.226,539.775 340.193,586.879 331.881,545.316 415.697,604.196   322.184,523.844 327.032,566.098 250.835,521.766 261.919,561.249 "/><polygon fill="#1e181a" points="268.74,623.659 314.535,633.963 300.796,591.603 367.199,623.659 314.535,609.921 322.549,646.557   "/><polygon fill="#1e181a" points="572.283,380.961 595.526,421.909 548.474,421.219 599.645,475.542 570.987,429.008 610.607,425.89   "/></svg>
