<?xml version="1.0" encoding="UTF-8" standalone="no"?>
<svg
   xmlns:dc="http://purl.org/dc/elements/1.1/"
   xmlns:cc="http://creativecommons.org/ns#"
   xmlns:rdf="http://www.w3.org/1999/02/22-rdf-syntax-ns#"
   xmlns:svg="http://www.w3.org/2000/svg"
   xmlns="http://www.w3.org/2000/svg"
   xmlns:sodipodi="http://sodipodi.sourceforge.net/DTD/sodipodi-0.dtd"
   xmlns:inkscape="http://www.inkscape.org/namespaces/inkscape"
   version="1.1"
   x="0px"
   y="0px"
   viewBox="0 0 100 100"
   enable-background="new 0 0 100 100"
   xml:space="preserve"
   id="svg2"
   inkscape:version="0.48.5 r10040"
   width="100%"
   height="100%"
   sodipodi:docname="lemon (5).svg"><metadata
     id="metadata50"><rdf:RDF><cc:Work
         rdf:about=""><dc:format>image/svg+xml</dc:format><dc:type
           rdf:resource="http://purl.org/dc/dcmitype/StillImage" /><dc:title></dc:title></cc:Work></rdf:RDF></metadata><defs
     id="defs48" /><sodipodi:namedview
     pagecolor="#ffffff"
     bordercolor="#666666"
     borderopacity="1"
     objecttolerance="10"
     gridtolerance="10"
     guidetolerance="10"
     inkscape:pageopacity="0"
     inkscape:pageshadow="2"
     inkscape:window-width="1140"
     inkscape:window-height="850"
     id="namedview46"
     showgrid="false"
     inkscape:zoom="1.888"
     inkscape:cx="-40.977767"
     inkscape:cy="28.785908"
     inkscape:window-x="1024"
     inkscape:window-y="768"
     inkscape:window-maximized="0"
     inkscape:current-layer="svg2"><sodipodi:guide
       position="0,0"
       orientation="0,100"
       id="guide3067" /><sodipodi:guide
       position="99.973517,4.7669492"
       orientation="-125,0"
       id="guide3069" /><sodipodi:guide
       position="100,125"
       orientation="0,-100"
       id="guide3071" /><sodipodi:guide
       position="0,125"
       orientation="125,0"
       id="guide3073" /></sodipodi:namedview><g
     id="g4"><path
       d="m 56.9,52.2 -7.8,26.4 3.7,1.1 8.2,-27.8 c -1.7,0.3 -3.2,0.3 -4.1,0.3 z"
       id="path6"
       inkscape:connector-curvature="0"
       style="fill:#000000" /><path
       d="m 72,26.6 c 0,-0.9 -0.4,-1.4 -3.6,-1.9 l 1.5,-5 -3.6,-1.2 -1.7,5.8 C 60.5,24 55.1,23.8 49.3,23.8 43.5,23.8 38,24 33.9,24.3 c -6.6,0.5 -7.3,1.1 -7.3,2.2 l 0,23.7 4.8,37.4 c 0.3,2.7 2.2,4.8 4.8,5.5 3.1,0.8 7.6,1.8 12.5,1.9 l 0,0 c 0.2,0 0.4,0 0.6,0 0.2,0 0.4,0 0.6,0 l 0,0 c 4.9,-0.1 9.5,-1.1 12.5,-1.9 2.6,-0.7 4.5,-2.9 4.8,-5.5 L 72,50.2 72,26.6 z m -2.2,1.6 0.1,22 c -1.7,1.3 -2.5,4.7 -2.6,5.2 l -3.5,21.5 c -0.5,2.8 -2.5,5.2 -5.2,6 C 56.2,83.6 53,84 49.3,84 45.6,84 42.3,83.6 39.6,82.7 36.9,81.8 34.9,79.4 34.5,76.5 33.7,70.2 32.2,59.1 31.2,55 30.6,52.3 29.7,50.6 28.8,49.9 l 0,-21.7 c 1.1,0.2 2.7,0.4 5.2,0.6 4.1,0.3 9.6,0.5 15.4,0.5 5.1,0 10,-0.1 13.9,-0.4 l -4.7,16 c -4.5,-0.4 -8.8,-0.4 -9.2,-0.4 -0.8,0 -21.447161,0.187263 -21.447161,3.487263 0,3.3 20.647161,3.112737 21.447161,3.112737 0.8,0 21.634425,0 21.634425,-3.3 0,-1.2 -5.134425,-2 -8.534425,-2.5 l 4.9,-16.7 c 1,-0.1 1.8,-0.2 2.4,-0.4 z m -8.2,19.7 0.5,-1.5 c 3.2,0.4 6.498108,1 6.798108,1.4 C 68.298108,48.7 60.1,50 49.3,50 38.5,50 30.963683,48.7 30.263683,47.8 30.863683,46.9 38.5,45.6 49.3,45.6 c 3.4,0 6.4,0.1 8.9,0.3 l -0.6,2 c 1.1,0.2 2.5,0.2 4,0 z M 49.3,26.1 c 6.1,0 11.1,0.2 14.6,0.4 l -0.1,0.2 c -3.6,0.3 -8.5,0.4 -14.6,0.4 -6.9,0 -12.4,-0.2 -16,-0.5 3.7,-0.3 9.2,-0.5 16.1,-0.5 z m 15.9,61.3 c -0.2,1.8 -1.5,3.2 -3.2,3.7 -3.1,0.8 -7.7,1.8 -12.6,1.8 -4.9,-0.1 -9.5,-1 -12.6,-1.8 -1.7,-0.5 -3,-1.9 -3.2,-3.7 L 29,52 c 0.4,0.7 0.8,1.7 1.2,3.4 1,4.1 2.5,15.1 3.3,21.4 0.4,3.3 2.7,6 5.8,7.1 2.8,0.9 6.2,1.4 10,1.4 3.8,0 7.1,-0.4 9.8,-1.3 3.1,-0.9 5.4,-3.6 5.9,-6.8 l 3.4,-21.4 c 0.2,-0.9 0.7,-2.3 1.3,-3.4 z"
       id="path8"
       inkscape:connector-curvature="0"
       style="fill:#000000"
       sodipodi:nodetypes="cccccscscccccsccccccccccccsscccccsccssssccccccscscccsccscscccccccccsccccc" /><path
       d="m 38.1,59.8 c -1.3,0 -2.3,1 -2.3,2.3 0,1.3 1,2.3 2.3,2.3 1.3,0 2.3,-1 2.3,-2.3 0.1,-1.3 -1,-2.3 -2.3,-2.3 z m 0,3.5 c -0.7,0 -1.2,-0.5 -1.2,-1.2 0,-0.7 0.5,-1.2 1.2,-1.2 0.7,0 1.2,0.5 1.2,1.2 0.1,0.7 -0.5,1.2 -1.2,1.2 z"
       id="path10"
       inkscape:connector-curvature="0"
       style="fill:#000000" /><path
       d="m 44,69.9 c -1.3,0 -2.3,1 -2.3,2.3 0,1.3 1,2.3 2.3,2.3 1.3,0 2.3,-1 2.3,-2.3 0,-1.3 -1,-2.3 -2.3,-2.3 z m 0,3.5 c -0.7,0 -1.2,-0.5 -1.2,-1.2 0,-0.7 0.5,-1.2 1.2,-1.2 0.7,0 1.2,0.5 1.2,1.2 0.1,0.7 -0.5,1.2 -1.2,1.2 z"
       id="path12"
       inkscape:connector-curvature="0"
       style="fill:#000000" /><path
       d="m 50.3,58.6 c 0,-1.3 -1,-2.3 -2.3,-2.3 -1.3,0 -2.3,1 -2.3,2.3 0,1.3 1,2.3 2.3,2.3 1.3,0 2.3,-1 2.3,-2.3 z M 48,59.8 c -0.7,0 -1.2,-0.5 -1.2,-1.2 0,-0.7 0.5,-1.2 1.2,-1.2 0.7,0 1.2,0.5 1.2,1.2 0,0.7 -0.5,1.2 -1.2,1.2 z"
       id="path14"
       inkscape:connector-curvature="0"
       style="fill:#000000" /><path
       d="m 18.6,17.8 c -0.3,-0.3 -0.9,-0.3 -1.2,0.1 -1.2,1.6 -2,3.4 -2.2,5.5 -0.1,0.5 0.3,0.9 0.8,0.9 h 7.2 c 0.7,0 1,-0.8 0.6,-1.3 l -5.2,-5.2 z"
       id="path16"
       inkscape:connector-curvature="0"
       style="fill:#000000" /><path
       d="m 16,25.7 c -0.5,0 -0.8,0.4 -0.8,0.9 0.3,2.1 1.1,4.1 2.4,5.7 0.3,0.4 0.8,0.4 1.2,0.1 L 24.2,27 c 0.5,-0.5 0.1,-1.3 -0.6,-1.3 H 16 z"
       id="path18"
       inkscape:connector-curvature="0"
       style="fill:#000000" /><path
       d="m 34.2,15.7 c -1.6,-1.3 -3.6,-2.1 -5.7,-2.4 -0.5,-0.1 -0.9,0.3 -0.9,0.8 v 7.6 c 0,0.7 0.8,1 1.3,0.6 l 5.4,-5.4 c 0.3,-0.4 0.3,-0.9 -0.1,-1.2 z"
       id="path20"
       inkscape:connector-curvature="0"
       style="fill:#000000" /><path
       d="m 25.3,13.3 c -2.1,0.3 -4.1,1.1 -5.7,2.4 -0.4,0.3 -0.4,0.8 -0.1,1.2 l 5.4,5.4 c 0.5,0.5 1.3,0.1 1.3,-0.6 V 14 c 0,-0.4 -0.4,-0.8 -0.9,-0.7 z"
       id="path22"
       inkscape:connector-curvature="0"
       style="fill:#000000" /><path
       d="m 87.9,5.2 -14.8,5.7 c -0.5,0.2 -1.1,0.5 -1.6,0.7 l 2.2,3.1 c 0.2,-0.1 0.5,-0.2 0.7,-0.3 L 89.2,8.7 87.9,5.2 z"
       id="path24"
       inkscape:connector-curvature="0"
       style="fill:#000000" /><path
       d="m 70.8,17.5 -3.1,-2.2 c -0.3,0.6 -0.6,1.1 -0.9,1.7 l 3.6,1.2 c 0.1,-0.2 0.3,-0.5 0.4,-0.7 z"
       id="path26"
       inkscape:connector-curvature="0"
       style="fill:#000000" /><path
       d="m 68.6,14 3.1,2.2 c 0.2,-0.2 0.4,-0.4 0.6,-0.6 l -2.2,-3.1 c -0.5,0.4 -1,0.9 -1.5,1.5 z"
       id="path28"
       inkscape:connector-curvature="0"
       style="fill:#000000" /><path
       d="M 38.5,22.7 C 38.2,20.9 37.4,19.3 36.4,17.9 36.1,17.5 35.6,17.5 35.2,17.8 L 30.1,23 c -0.1,0.1 -0.2,0.3 -0.2,0.4 1.1,-0.2 2.4,-0.3 3.9,-0.4 1.4,-0.1 3,-0.2 4.7,-0.3 z"
       id="path30"
       inkscape:connector-curvature="0"
       style="fill:#000000" /><path
       d="m 36.2,32.3 c 0.5,-0.6 0.9,-1.2 1.2,-1.9 -1.3,-0.1 -2.5,-0.1 -3.6,-0.2 -0.3,0 -0.7,-0.1 -1,-0.1 l 2.2,2.2 c 0.4,0.4 0.9,0.4 1.2,0 z"
       id="path32"
       inkscape:connector-curvature="0"
       style="fill:#000000" /><path
       d="m 19.8,33.3 c -0.3,0.3 -0.3,0.9 0.1,1.2 1.5,1.1 3.4,1.9 5.4,2.2 V 28 c -0.1,0 -0.2,0.1 -0.3,0.2 l -5.2,5.1 z"
       id="path34"
       inkscape:connector-curvature="0"
       style="fill:#000000" /><path
       d="m 34,33.3 -3.4,-3.4 c -0.2,0 -0.4,0 -0.6,-0.1 v 6.5 c 1.4,-0.4 2.7,-1 3.8,-1.9 0.5,-0.2 0.6,-0.8 0.2,-1.1 z"
       id="path36"
       inkscape:connector-curvature="0"
       style="fill:#000000" /><path
       d="m 12.4,25 c 0,-8 6.5,-14.6 14.6,-14.6 7.2,0 13.2,5.3 14.4,12.2 0.5,0 1.1,0 1.6,0 C 41.8,14.8 35.1,8.8 27,8.8 18,8.8 10.7,16.1 10.7,25 c 0,8.4 6.4,15.2 14.5,16.1 V 39.5 C 18,38.6 12.4,32.4 12.4,25 z"
       id="path38"
       inkscape:connector-curvature="0"
       style="fill:#000000" /><path
       d="m 42.1,30.6 c -0.6,0 -1.2,0 -1.7,-0.1 -1.8,4.3 -5.6,7.6 -10.2,8.6 v 1.7 c 5.4,-1.1 10,-5 11.9,-10.2 z"
       id="path40"
       inkscape:connector-curvature="0"
       style="fill:#000000" /></g><path
     style="fill:#ffff00;fill-opacity:1"
     d="m 22.075443,19.659463 c -2.065468,-2.076254 -3.023625,-3.303871 -2.876968,-3.686053 0.286205,-0.745836 2.565069,-2.005903 4.614475,-2.55151 2.463823,-0.655936 2.686732,-0.298374 2.686732,4.309706 0,4.055165 -0.174235,5.040886 -0.891024,5.040886 -0.239997,0 -1.829943,-1.400863 -3.533215,-3.113029 z"
     id="path3033"
     inkscape:connector-curvature="0" /><path
     style="fill:#ffff00;fill-opacity:1"
     d="m 27.698169,22.32306 c -0.684258,-0.684257 -0.612379,-8.312262 0.08377,-8.890015 0.650525,-0.539888 3.045635,0.01412 5.160986,1.193786 1.556664,0.8681 1.952549,1.537296 1.456036,2.461258 -0.453387,0.843708 -5.490728,5.684403 -5.915323,5.684403 -0.184821,0 -0.538282,-0.202244 -0.785469,-0.449432 z"
     id="path3035"
     inkscape:connector-curvature="0" /><path
     style="fill:#ffff00;fill-opacity:1"
     d="m 29.870425,23.257016 c 0,-0.585241 5.442056,-5.7279 6.061368,-5.7279 0.650124,0 2.55275,3.391888 2.55275,4.550888 0,0.744072 -0.702598,0.904739 -5.524272,1.263267 -1.699415,0.126364 -3.089846,0.08755 -3.089846,-0.08626 z"
     id="path3037"
     inkscape:connector-curvature="0" /><path
     style="fill:#ffff00;fill-opacity:1"
     d="m 33.877385,31.350442 -1.572536,-1.525506 1.831276,0.219047 c 1.007202,0.120476 2.238625,0.219047 2.736494,0.219047 0.901481,0 0.902507,0.0046 0.248442,1.111835 -0.979522,1.658198 -1.513325,1.654179 -3.243676,-0.02442 l 0,0 z"
     id="path3039"
     inkscape:connector-curvature="0" /><path
     style="fill:#ffff00;fill-opacity:1"
     d="m 29.870425,33.062712 c 0,-1.951805 0.13216,-3.548736 0.293689,-3.548736 0.457883,0 4.200633,3.904278 4.200633,4.381922 0,0.467694 -1.857303,1.712957 -3.468547,2.32555 l -1.025775,0.39 0,-3.548736 z"
     id="path3041"
     inkscape:connector-curvature="0" /><path
     style="fill:#ffff00;fill-opacity:1"
     d="m 29.870425,40.00073 c 0,-0.647229 0.19848,-1.125132 0.468158,-1.12724 0.257487,-0.002 1.350861,-0.41462 2.429719,-0.916907 2.351707,-1.09489 5.424974,-3.87968 6.719679,-6.088928 0.694067,-1.184335 1.176296,-1.604625 1.841102,-1.604625 1.102895,0 1.120478,0.348152 0.116925,2.315278 -0.980542,1.92202 -3.810344,4.984126 -5.73066,6.201101 -1.153696,0.731139 -5.087651,2.344901 -5.716292,2.344901 -0.07075,0 -0.128631,-0.505611 -0.128631,-1.12358 z"
     id="path3043"
     inkscape:connector-curvature="0" /><path
     style="fill:#ffff00;fill-opacity:1"
     d="M 21.473036,40.336558 C 11.60019,36.941295 7.5225715,25.035541 13.21273,16.218272 17.792926,9.120959 26.693601,6.7008557 34.351224,10.470691 c 4.082236,2.009679 7.256537,5.941434 8.450277,10.46669 l 0.484093,1.835111 -1.059923,0 c -0.892143,0 -1.101581,-0.192678 -1.323091,-1.217212 -0.790287,-3.65527 -4.274259,-7.852007 -7.947631,-9.573593 -1.882729,-0.882371 -2.611052,-1.006792 -5.893476,-1.006792 -3.334737,0 -4.000717,0.117994 -6.075715,1.076452 -2.481893,1.146407 -5.486312,3.961098 -6.66974,6.248549 -4.281181,8.275108 0.265958,18.322711 9.324379,20.603648 1.456301,0.366701 1.735705,0.580622 1.735705,1.328911 0,1.126971 -0.861893,1.149959 -3.903066,0.104103 l 0,0 z"
     id="path3045"
     inkscape:connector-curvature="0" /><path
     style="fill:#ffff00;fill-opacity:1"
     d="m 15.287601,24.111924 c -0.965663,-1.163553 1.331925,-6.582808 2.790897,-6.582808 0.783526,0 6.174023,5.131699 6.174023,5.877608 0,0.9561 -1.073823,1.238403 -4.710633,1.238403 -2.840505,0 -3.924525,-0.135864 -4.254287,-0.533203 z"
     id="path3047"
     inkscape:connector-curvature="0" /><path
     style="fill:#ffff00;fill-opacity:1"
     d="m 17.248597,32.042033 c -1.042516,-1.144588 -1.517824,-2.133741 -1.950375,-4.058882 -0.54338,-2.418408 -0.250378,-2.589954 4.412204,-2.583235 4.319339,0.0062 5.126308,0.241694 4.761999,1.389532 -0.258689,0.815057 -5.549178,6.09527 -6.107132,6.09527 -0.192037,0 -0.69455,-0.379208 -1.116696,-0.842685 z"
     id="path3049"
     inkscape:connector-curvature="0" /><path
     style="fill:#ffff00;fill-opacity:1"
     d="m 23.268288,36.303295 c -2.295439,-0.777872 -3.884617,-1.762415 -3.884617,-2.406635 0,-0.581366 5.51611,-6.107427 5.806531,-5.817006 0.115796,0.115796 0.16286,2.159923 0.104587,4.542505 l -0.105951,4.331966 -1.92055,-0.65083 z"
     id="path3051"
     inkscape:connector-curvature="0" /><path
     style="fill:#ffff00;fill-opacity:1;opacity:0.30088496"
     d="M 45.194634,83.719696 C 38.976163,82.829543 36.903117,81.802042 35.409863,78.869887 34.80838,77.688815 34.669267,76.974184 33.785099,70.523395 31.828526,56.248478 31.056142,52.668771 29.464944,50.501126 c -0.868805,-1.18355 -0.843986,-1.362405 0.140008,-1.008947 5.650677,2.029766 27.993356,2.290706 37.390256,0.436681 1.072859,-0.211677 2.099608,-0.464587 2.281667,-0.562022 0.473357,-0.253332 0.542903,-0.225515 0.542903,0.217155 0,0.216871 -0.215797,0.650771 -0.47955,0.964223 -0.641587,0.762484 -1.481578,2.45424 -1.840783,3.707371 -0.160833,0.561087 -1.096585,5.972053 -2.07945,12.024368 -1.059666,6.525248 -1.943555,11.422571 -2.171595,12.032067 -0.438138,1.171028 -1.473342,2.564275 -2.469797,3.32402 -1.911342,1.457297 -4.849539,2.03582 -10.715119,2.10977 -2.368882,0.02987 -4.559865,0.01811 -4.86885,-0.02612 l 0,0 z m 7.771434,-4.099416 c 0,-0.05134 1.811773,-6.237418 4.026164,-13.746838 2.21439,-7.50942 4.026164,-13.74601 4.026164,-13.859088 0,-0.196542 -1.368021,-0.159967 -3.477374,0.09297 l -0.762051,0.09138 -3.894608,13.20499 c -2.142036,7.262744 -3.863691,13.232332 -3.825903,13.265751 0.03779,0.03342 0.78499,0.276158 1.660446,0.539422 1.565699,0.470831 2.247162,0.595593 2.247162,0.411412 z m -7.725855,-5.382845 c 1.022201,-0.495585 1.42308,-2.345714 0.735726,-3.395507 -1.078716,-1.647518 -4.008999,-1.065389 -4.290462,0.852341 -0.308187,2.099811 1.621562,3.480412 3.554736,2.543166 z M 38.768825,64.3515 c 1.067778,-0.296567 1.650592,-1.12077 1.650592,-2.334233 0,-0.859552 -0.07835,-1.079526 -0.553869,-1.555045 -1.493103,-1.493103 -4.127718,-0.440819 -4.127718,1.648639 0,0.918679 0.677678,1.904967 1.504592,2.189776 0.814485,0.280528 0.711816,0.277107 1.526403,0.05086 z m 10.362387,-3.659585 c 1.07098,-0.508214 1.533249,-2.100477 0.941843,-3.244131 -0.388105,-0.750513 -1.133818,-1.1733 -2.069469,-1.1733 -1.39544,0 -2.340793,0.96144 -2.340793,2.380627 0,1.782918 1.789231,2.833631 3.468419,2.036804 l 0,0 z"
     id="path3053"
     inkscape:connector-curvature="0" /><path
     style="fill:#ffff00;fill-opacity:1;opacity:0.36283186"
     d="M 42.666578,49.730197 C 37.779128,49.453952 32.617986,48.721868 30.962612,48.070043 l -0.56179,-0.221213 0.515763,-0.272285 c 2.285812,-1.206738 13.943982,-2.121216 22.669328,-1.778203 2.349316,0.09236 4.308711,0.205148 4.354211,0.250648 0.0455,0.0455 -0.04292,0.496897 -0.196477,1.003104 -0.153562,0.506207 -0.280114,0.941444 -0.28123,0.967193 -0.0011,0.02575 0.953723,0.04682 2.121861,0.04682 l 2.123888,0 0.224422,-0.749054 c 0.123433,-0.41198 0.326376,-0.749037 0.450985,-0.749017 0.955629,1.55e-4 6.125361,1.029305 6.125361,1.219389 0,0.218489 -0.960883,0.527467 -2.671733,0.859116 -5.561505,1.078097 -15.251226,1.531273 -23.170623,1.08366 z"
     id="path3057"
     inkscape:connector-curvature="0" /></svg>