<svg xmlns="http://www.w3.org/2000/svg" xmlns:xlink="http://www.w3.org/1999/xlink" version="1.1" x="0px" y="0px" viewBox="0 0 100 100" enable-background="new 0 0 100 100" xml:space="preserve"><g><path fill="#1e181a" d="M56.9,52.2l-7.8,26.4l3.7,1.1L61,51.9C59.3,52.2,57.8,52.2,56.9,52.2z"/><path fill="#1e181a" d="M72,26.6c0-0.9-0.4-1.4-3.6-1.9l1.5-5l-3.6-1.2l-1.7,5.8c-4.1-0.3-9.5-0.5-15.3-0.5   c-5.8,0-11.3,0.2-15.4,0.5c-6.6,0.5-7.3,1.1-7.3,2.2v23.7l4.8,37.4c0.3,2.7,2.2,4.8,4.8,5.5c3.1,0.8,7.6,1.8,12.5,1.9v0   c0.2,0,0.4,0,0.6,0c0.2,0,0.4,0,0.6,0v0c4.9-0.1,9.5-1.1,12.5-1.9c2.6-0.7,4.5-2.9,4.8-5.5l4.8-37.4L72,26.6L72,26.6z M69.8,28.2   l0.1,22c-1.7,1.3-2.5,4.7-2.6,5.2l-3.5,21.5c-0.5,2.8-2.5,5.2-5.2,6C56.2,83.6,53,84,49.3,84c-3.7,0-7-0.4-9.7-1.3   c-2.7-0.9-4.7-3.3-5.1-6.2c-0.8-6.3-2.3-17.4-3.3-21.5c-0.6-2.7-1.5-4.4-2.4-5.1V28.2c1.1,0.2,2.7,0.4,5.2,0.6   c4.1,0.3,9.6,0.5,15.4,0.5c5.1,0,10-0.1,13.9-0.4l-4.7,16c-4.5-0.4-8.8-0.4-9.2-0.4c-0.8,0-19.2,0-19.2,3.3s18.4,3.3,19.2,3.3   c0.8,0,19.2,0,19.2-3.3c0-1.2-2.7-2-6.1-2.5l4.9-16.7C68.4,28.5,69.2,28.4,69.8,28.2z M61.6,47.9l0.5-1.5c3.2,0.4,5,1,5.3,1.4   c-0.6,0.9-7.3,2.2-18.1,2.2s-17.4-1.3-18.1-2.2c0.6-0.9,7.3-2.2,18.1-2.2c3.4,0,6.4,0.1,8.9,0.3l-0.6,2   C58.7,48.1,60.1,48.1,61.6,47.9z M49.3,26.1c6.1,0,11.1,0.2,14.6,0.4l-0.1,0.2c-3.6,0.3-8.5,0.4-14.6,0.4c-6.9,0-12.4-0.2-16-0.5   C36.9,26.3,42.4,26.1,49.3,26.1z M65.2,87.4c-0.2,1.8-1.5,3.2-3.2,3.7c-3.1,0.8-7.7,1.8-12.6,1.8c-4.9-0.1-9.5-1-12.6-1.8   c-1.7-0.5-3-1.9-3.2-3.7L29,52c0.4,0.7,0.8,1.7,1.2,3.4c1,4.1,2.5,15.1,3.3,21.4c0.4,3.3,2.7,6,5.8,7.1c2.8,0.9,6.2,1.4,10,1.4   c3.8,0,7.1-0.4,9.8-1.3c3.1-0.9,5.4-3.6,5.9-6.8l3.4-21.4c0.2-0.9,0.7-2.3,1.3-3.4L65.2,87.4z"/><path fill="#1e181a" d="M38.1,59.8c-1.3,0-2.3,1-2.3,2.3c0,1.3,1,2.3,2.3,2.3s2.3-1,2.3-2.3C40.5,60.8,39.4,59.8,38.1,59.8z    M38.1,63.3c-0.7,0-1.2-0.5-1.2-1.2c0-0.7,0.5-1.2,1.2-1.2s1.2,0.5,1.2,1.2C39.4,62.8,38.8,63.3,38.1,63.3z"/><path fill="#1e181a" d="M44,69.9c-1.3,0-2.3,1-2.3,2.3s1,2.3,2.3,2.3c1.3,0,2.3-1,2.3-2.3S45.3,69.9,44,69.9z M44,73.4   c-0.7,0-1.2-0.5-1.2-1.2c0-0.7,0.5-1.2,1.2-1.2c0.7,0,1.2,0.5,1.2,1.2C45.3,72.9,44.7,73.4,44,73.4z"/><path fill="#1e181a" d="M50.3,58.6c0-1.3-1-2.3-2.3-2.3s-2.3,1-2.3,2.3c0,1.3,1,2.3,2.3,2.3S50.3,59.9,50.3,58.6z M48,59.8   c-0.7,0-1.2-0.5-1.2-1.2c0-0.7,0.5-1.2,1.2-1.2s1.2,0.5,1.2,1.2C49.2,59.3,48.7,59.8,48,59.8z"/><path fill="#1e181a" d="M18.6,17.8c-0.3-0.3-0.9-0.3-1.2,0.1c-1.2,1.6-2,3.4-2.2,5.5c-0.1,0.5,0.3,0.9,0.8,0.9h7.2   c0.7,0,1-0.8,0.6-1.3L18.6,17.8z"/><path fill="#1e181a" d="M16,25.7c-0.5,0-0.8,0.4-0.8,0.9c0.3,2.1,1.1,4.1,2.4,5.7c0.3,0.4,0.8,0.4,1.2,0.1l5.4-5.4   c0.5-0.5,0.1-1.3-0.6-1.3H16z"/><path fill="#1e181a" d="M34.2,15.7c-1.6-1.3-3.6-2.1-5.7-2.4c-0.5-0.1-0.9,0.3-0.9,0.8v7.6c0,0.7,0.8,1,1.3,0.6l5.4-5.4   C34.6,16.5,34.6,16,34.2,15.7z"/><path fill="#1e181a" d="M25.3,13.3c-2.1,0.3-4.1,1.1-5.7,2.4c-0.4,0.3-0.4,0.8-0.1,1.2l5.4,5.4c0.5,0.5,1.3,0.1,1.3-0.6V14   C26.2,13.6,25.8,13.2,25.3,13.3z"/><path fill="#1e181a" d="M87.9,5.2l-14.8,5.7c-0.5,0.2-1.1,0.5-1.6,0.7l2.2,3.1c0.2-0.1,0.5-0.2,0.7-0.3l14.8-5.7L87.9,5.2z"/><path fill="#1e181a" d="M70.8,17.5l-3.1-2.2c-0.3,0.6-0.6,1.1-0.9,1.7l3.6,1.2C70.5,18,70.7,17.7,70.8,17.5z"/><path fill="#1e181a" d="M68.6,14l3.1,2.2c0.2-0.2,0.4-0.4,0.6-0.6l-2.2-3.1C69.6,12.9,69.1,13.4,68.6,14z"/><path fill="#1e181a" d="M38.5,22.7c-0.3-1.8-1.1-3.4-2.1-4.8c-0.3-0.4-0.8-0.4-1.2-0.1L30.1,23c-0.1,0.1-0.2,0.3-0.2,0.4   c1.1-0.2,2.4-0.3,3.9-0.4C35.2,22.9,36.8,22.8,38.5,22.7z"/><path fill="#1e181a" d="M36.2,32.3c0.5-0.6,0.9-1.2,1.2-1.9c-1.3-0.1-2.5-0.1-3.6-0.2c-0.3,0-0.7-0.1-1-0.1l2.2,2.2   C35.4,32.7,35.9,32.7,36.2,32.3z"/><path fill="#1e181a" d="M19.8,33.3c-0.3,0.3-0.3,0.9,0.1,1.2c1.5,1.1,3.4,1.9,5.4,2.2V28c-0.1,0-0.2,0.1-0.3,0.2L19.8,33.3z"/><path fill="#1e181a" d="M34,33.3l-3.4-3.4c-0.2,0-0.4,0-0.6-0.1v6.5c1.4-0.4,2.7-1,3.8-1.9C34.3,34.2,34.4,33.6,34,33.3z"/><path fill="#1e181a" d="M12.4,25c0-8,6.5-14.6,14.6-14.6c7.2,0,13.2,5.3,14.4,12.2c0.5,0,1.1,0,1.6,0c-1.2-7.8-7.9-13.8-16-13.8   C18,8.8,10.7,16.1,10.7,25c0,8.4,6.4,15.2,14.5,16.1v-1.6C18,38.6,12.4,32.4,12.4,25z"/><path fill="#1e181a" d="M42.1,30.6c-0.6,0-1.2,0-1.7-0.1c-1.8,4.3-5.6,7.6-10.2,8.6v1.7C35.6,39.7,40.2,35.8,42.1,30.6z"/></g></svg>
