<?xml version="1.0" encoding="UTF-8" standalone="no"?>
<svg
   xmlns:dc="http://purl.org/dc/elements/1.1/"
   xmlns:cc="http://creativecommons.org/ns#"
   xmlns:rdf="http://www.w3.org/1999/02/22-rdf-syntax-ns#"
   xmlns:svg="http://www.w3.org/2000/svg"
   xmlns="http://www.w3.org/2000/svg"
   xmlns:sodipodi="http://sodipodi.sourceforge.net/DTD/sodipodi-0.dtd"
   xmlns:inkscape="http://www.inkscape.org/namespaces/inkscape"
   version="1.1"
   x="0px"
   y="0px"
   viewBox="0 0 100 125"
   enable-background="new 0 0 100 100"
   xml:space="preserve"
   id="svg2"
   inkscape:version="0.48.5 r10040"
   width="100%"
   height="100%"
   sodipodi:docname="lemon.svg"><metadata
     id="metadata24"><rdf:RDF><cc:Work
         rdf:about=""><dc:format>image/svg+xml</dc:format><dc:type
           rdf:resource="http://purl.org/dc/dcmitype/StillImage" /></cc:Work></rdf:RDF></metadata><defs
     id="defs22" /><sodipodi:namedview
     pagecolor="#ffffff"
     bordercolor="#666666"
     borderopacity="1"
     objecttolerance="10"
     gridtolerance="10"
     guidetolerance="10"
     inkscape:pageopacity="0"
     inkscape:pageshadow="2"
     inkscape:window-width="1186"
     inkscape:window-height="708"
     id="namedview20"
     showgrid="false"
     inkscape:zoom="1.888"
     inkscape:cx="62.007592"
     inkscape:cy="63.704706"
     inkscape:window-x="1405"
     inkscape:window-y="943"
     inkscape:window-maximized="0"
     inkscape:current-layer="svg2" /><path
     fill="#1e181a"
     d="M55.158,37.159c0.298,0,0.596-0.123,0.81-0.338c0.214-0.213,0.337-0.512,0.337-0.809  c0-0.299-0.123-0.598-0.337-0.811c-0.427-0.428-1.19-0.428-1.62,0c-0.214,0.213-0.335,0.512-0.335,0.811  c0,0.297,0.121,0.596,0.335,0.809C54.562,37.036,54.854,37.159,55.158,37.159z"
     id="path4" /><path
     fill="#1e181a"
     d="M57.604,39.602c0.298,0,0.596-0.121,0.81-0.336s0.336-0.504,0.336-0.811c0-0.297-0.122-0.596-0.336-0.811  c-0.428-0.426-1.2-0.418-1.619,0c-0.214,0.215-0.337,0.514-0.337,0.811c0,0.307,0.123,0.596,0.337,0.811  S57.298,39.602,57.604,39.602z"
     id="path6" /><path
     fill="#1e181a"
     d="M53.936,40.825c0.298,0,0.596-0.121,0.811-0.336c0.214-0.215,0.335-0.504,0.335-0.811  c0-0.297-0.121-0.596-0.335-0.809c-0.429-0.428-1.192-0.428-1.628,0c-0.206,0.213-0.328,0.512-0.328,0.809  c0,0.299,0.122,0.596,0.328,0.811C53.34,40.704,53.631,40.825,53.936,40.825z"
     id="path8" /><path
     fill="#1e181a"
     d="M55.234,42.124c0,0.307,0.123,0.598,0.337,0.811c0.213,0.213,0.503,0.336,0.81,0.336  c0.298,0,0.597-0.123,0.81-0.336c0.214-0.213,0.337-0.512,0.337-0.811c0-0.297-0.123-0.596-0.337-0.811  c-0.428-0.426-1.198-0.426-1.619,0C55.357,41.528,55.234,41.827,55.234,42.124z"
     id="path10" /><path
     fill="#1e181a"
     d="M60.049,42.659c0.298,0,0.595-0.121,0.811-0.336c0.213-0.207,0.334-0.506,0.334-0.809  c0-0.299-0.121-0.598-0.334-0.811c-0.43-0.43-1.201-0.43-1.62,0c-0.215,0.213-0.337,0.512-0.337,0.811  c0,0.303,0.122,0.602,0.337,0.809C59.452,42.538,59.743,42.659,60.049,42.659z"
     id="path12" /><path
     fill="#1e181a"
     d="M33.485,32.297C24.26,35.69,21.849,44.678,21.751,45.059c-0.158,0.611,0.211,1.234,0.822,1.393  c0.097,0.025,0.192,0.037,0.289,0.037c0.508,0,0.973-0.342,1.108-0.855c0.021-0.082,2.232-8.217,10.307-11.184  c0.594-0.219,0.897-0.877,0.68-1.471C34.738,32.383,34.081,32.081,33.485,32.297z"
     id="path14" /><path
     fill="#1e181a"
     d="M36.852,33.567c0.298,0,0.588-0.123,0.81-0.336c0.214-0.215,0.328-0.514,0.328-0.811  c0-0.305-0.114-0.598-0.328-0.819c-0.436-0.418-1.191-0.418-1.627,0.01c-0.207,0.212-0.328,0.505-0.328,0.81  c0,0.297,0.121,0.596,0.336,0.811C36.256,33.444,36.546,33.567,36.852,33.567z"
     id="path16" /><path
     fill="#1e181a"
     d="M85.442,51.17c-0.144-0.145-0.337-0.224-0.541-0.224h-2.482H70.15c0.419-0.643,0.668-1.402,0.668-2.223  c0-2.072-1.544-3.789-3.543-4.061C65.069,34.379,54.611,26.744,42.5,26.744c-12.119,0-22.588,7.651-24.783,17.944  c-1.919,0.34-3.382,2.02-3.382,4.035c0,2.014,1.462,3.695,3.381,4.033C19.912,63.051,30.381,70.701,42.5,70.701  c1.896,0,3.754-0.188,5.545-0.543c3.74,1.965,8.118,3.098,12.792,3.098c13.657,0,24.794-9.666,24.828-21.545  C85.666,51.508,85.586,51.314,85.442,51.17z M81.631,52.473c-0.258,4.275-2.555,8.262-6.052,11.266l-9.101-8.236l-1.85-1.674  l-1.497-1.355h1.862h3.335H81.631z M74.371,64.705c-3.482,2.576-7.919,4.236-12.646,4.428v-6.23v-3.494v-6.146l2.338,2.113  l1.785,1.617L74.371,64.705z M42.5,68.41c-11.368,0-21.125-7.285-22.694-16.945c-0.092-0.558-0.574-0.96-1.131-0.96  c-0.031,0-0.063,0-0.095,0.002c-0.054,0.004-0.104,0.012-0.146,0.021c-0.996,0-1.806-0.809-1.806-1.805  c0-0.994,0.807-1.803,1.79-1.803c0.002,0,0.004,0,0.005,0l0.146,0.018c0.6,0.053,1.139-0.363,1.236-0.959  c1.569-9.658,11.325-16.944,22.694-16.944c11.376,0,21.133,7.292,22.695,16.96c0.099,0.617,0.742,1.033,1.359,0.941  c0.055-0.006,0.109-0.02,0.166-0.02c0.995,0,1.806,0.811,1.806,1.807s-0.811,1.805-1.806,1.805c-0.061,0-0.117-0.012-0.238-0.029  c-0.421-0.055-0.821,0.129-1.064,0.447H39.504h-2.732c-0.202,0-0.397,0.08-0.54,0.224c-0.144,0.145-0.225,0.338-0.224,0.541  c0.019,6.658,3.525,12.617,9.007,16.574C44.188,68.363,43.349,68.41,42.5,68.41z M60.196,53.262v7.936v3.143v4.799  c-2.054-0.059-4.049-0.416-5.941-0.998c-1.071-0.33-2.105-0.734-3.097-1.209c-1.3-0.621-2.532-1.348-3.655-2.184L60.196,53.262z   M46.301,63.775c-3.472-3.008-5.754-7.01-6.009-11.303H58.79L46.301,63.775z M60.837,71.729c-3.756,0-7.306-0.777-10.452-2.145  c-1.085-0.471-2.123-1.012-3.103-1.617c-5.655-3.498-9.43-9.117-9.728-15.494h1.211c0.333,6.16,4.453,11.777,10.312,15.096  c0.971,0.551,1.99,1.033,3.048,1.449c2.697,1.061,5.643,1.662,8.686,1.662c11.589,0,21.81-8.422,22.345-18.207h0.962  C83.618,63.158,73.354,71.729,60.837,71.729z"
     id="path18" /><path
     style="fill:#ffff00;fill-opacity:1"
     d="M 35.748131,67.134818 C 28.35028,65.094698 22.288319,59.388254 20.512265,52.792492 c -0.445209,-1.653383 -0.941361,-2.266498 -2.226741,-2.751674 -1.91366,-0.722326 -1.83831,-1.691917 0.209048,-2.689995 0.800595,-0.390288 1.563419,-1.309569 1.758059,-2.118645 1.868522,-7.76701 9.569867,-14.155679 18.737053,-15.543367 6.998883,-1.05946 14.454299,1.121988 19.577784,5.728442 3.043578,2.736438 4.663868,5.188482 5.866771,8.878401 0.657139,2.015782 1.176533,2.734189 2.141448,2.961974 0.800199,0.188902 1.273889,0.679933 1.273889,1.320525 0,2.104649 -1.873163,2.359211 -17.420499,2.367429 l -14.772195,0.0078 0.300825,2.91471 c 0.40481,3.922233 2.425399,8.141825 5.444252,11.369223 l 2.493001,2.665219 -2.8532,-0.04736 C 39.472499,67.829133 37.090367,67.50497 35.748131,67.134818 z M 24.992141,43.935381 c 1.66999,-3.347817 5.045085,-6.989951 7.793199,-8.409799 1.106619,-0.571749 2.147431,-1.39238 2.312915,-1.823624 0.23683,-0.617171 0.462497,-0.64995 1.060098,-0.153984 0.598099,0.496377 0.946271,0.443044 1.640627,-0.251312 0.822103,-0.822103 0.821423,-0.941392 -0.01009,-1.772911 -0.807922,-0.807921 -0.97995,-0.814401 -1.834898,-0.06911 -0.518866,0.452314 -1.222464,0.720742 -1.56355,0.596507 -1.16054,-0.422706 -5.749164,2.368814 -8.12974,4.945782 -2.629029,2.845918 -5.076024,7.592768 -4.580174,8.884935 0.611823,1.594384 1.932573,0.818083 3.311618,-1.94648 z M 57.42561,42.076157 c 0.127178,-0.891413 -0.09547,-1.186326 -0.895648,-1.186326 -1.291414,0 -1.77448,0.666744 -1.327323,1.832018 0.470204,1.225331 2.020266,0.775095 2.222971,-0.645692 l 0,0 z m 3.707627,-0.565738 c 0.127909,-0.86927 -0.102574,-1.15025 -0.94353,-1.15025 -1.343089,0 -2.057872,1.509737 -1.024303,2.16349 1.063992,0.672997 1.773465,0.307688 1.967833,-1.01324 l 0,0 z m -5.995525,-1.944741 c 0,-1.577404 -2.067583,-1.41981 -2.293454,0.174809 -0.145457,1.026914 0.03241,1.20478 1.059323,1.059322 0.822754,-0.116539 1.234131,-0.527917 1.234131,-1.234131 z m 3.707627,-1.059322 c 0,-0.686371 -0.408103,-1.117408 -1.159167,-1.224308 -0.722144,-0.102783 -1.221369,-0.602008 -1.324152,-1.324152 -0.22854,-1.605689 -2.223977,-1.579194 -2.452884,0.03257 -0.137846,0.970594 0.0833,1.191737 1.191737,1.191737 1.108441,0 1.360991,0.252551 1.360991,1.360991 0,1.108441 0.221144,1.329584 1.191738,1.191738 0.782212,-0.111092 1.191737,-0.533276 1.191737,-1.228576 z"
     id="path3001"
     inkscape:connector-curvature="0" /><path
     style="fill:#ffff00;fill-opacity:1"
     d="m 44.566258,61.475885 c -1.732871,-2.059401 -3.218585,-4.950041 -3.70684,-7.212114 l -0.371553,-1.721398 8.89499,0 c 7.383759,0 8.763222,0.118138 8.119415,0.695353 -0.426566,0.382444 -3.067487,2.765919 -5.868712,5.29661 -2.801226,2.530692 -5.2231,4.601257 -5.381943,4.601257 -0.158842,0 -0.917253,-0.746869 -1.685357,-1.659708 z"
     id="path3005"
     inkscape:connector-curvature="0" /><path
     style="fill:#ffff00;fill-opacity:1"
     d="m 56.175078,68.223049 c -3.003799,-0.729756 -7.658129,-2.845073 -7.658129,-3.480496 0,-0.372077 8.377569,-8.199825 10.725636,-10.02171 0.872963,-0.67734 0.926907,-0.283872 0.926907,6.760913 0,5.655004 -0.161543,7.469117 -0.662077,7.435063 -0.364142,-0.02478 -1.863694,-0.336971 -3.332337,-0.69377 z"
     id="path3007"
     inkscape:connector-curvature="0" /><path
     style="fill:#ffff00;fill-opacity:1"
     d="m 61.758475,61.517449 c 0,-7.080539 0.05368,-7.473883 0.926906,-6.791984 2.34052,1.827703 10.725636,9.679941 10.725636,10.044018 0,0.639914 -5.333339,2.998282 -7.680085,3.396084 -1.165254,0.197524 -2.535752,0.473559 -3.045551,0.613409 -0.851166,0.233496 -0.926906,-0.359863 -0.926906,-7.261527 z"
     id="path3009"
     inkscape:connector-curvature="0" /><path
     style="fill:#ffff00;fill-opacity:1"
     d="m 72.881356,60.870644 c -1.310911,-1.232217 -3.913764,-3.610166 -5.784117,-5.284332 l -3.400643,-3.043939 8.871753,0 8.871752,0 -0.371553,1.721398 c -0.65421,3.030937 -4.267645,8.901125 -5.453555,8.859545 -0.192589,-0.0068 -1.422726,-1.020455 -2.733637,-2.252672 z"
     id="path3011"
     inkscape:connector-curvature="0" /><path
     style="fill:#ffff00;fill-opacity:1"
     d="M 58.847603,71.624824 C 52.846665,71.152491 47.426008,68.796415 43.44974,64.932179 40.638751,62.20039 38.786751,58.985572 37.989558,55.454054 37.882859,54.981383 37.874096,54.849982 37.874096,53.722567 l 0,-1.22 0.439184,0 0.439183,0 0.03339,0.456455 c 0.01837,0.25105 0.08447,0.769999 0.146897,1.153221 1.116792,6.855767 6.904606,12.957046 14.657685,15.451538 6.021819,1.937473 12.680759,1.363711 18.389012,-1.584474 2.265099,-1.169874 4.073685,-2.482977 5.806795,-4.215956 2.268517,-2.268348 3.780097,-4.679932 4.672307,-7.454227 0.346692,-1.078021 0.686481,-2.800189 0.686481,-3.479312 0,-0.322379 0.0075,-0.327245 0.502143,-0.327245 l 0.445309,0 -0.033,0.456455 c -0.238747,3.302298 -1.507156,6.626704 -3.603725,9.4451 -1.071381,1.440246 -2.497402,2.901323 -3.93517,4.031907 -3.596977,2.82847 -8.139172,4.631121 -12.89777,5.11871 -1.52058,0.155806 -3.345801,0.182594 -4.775218,0.07009 l 0,0 z"
     id="path3015"
     inkscape:connector-curvature="0" /></svg>