<svg xmlns="http://www.w3.org/2000/svg" xmlns:xlink="http://www.w3.org/1999/xlink" version="1.1" x="0px" y="0px" viewBox="0 0 100 125" enable-background="new 0 0 100 100" xml:space="preserve"><path d="M94.257,42.255c-3.245-0.825-8.149-6.691-8.149-6.691c-6.519-10.94-20.295-18.483-36.234-18.483  c-16.032,0-29.872,7.631-36.346,18.67c0,0-4.599,5.679-7.847,6.503c-2.55,0.649-4.855,3.81-4.855,6.484v2.02  c0,2.673,2.306,5.833,4.855,6.483c3.248,0.825,7.723,6.495,7.723,6.495c6.422,11.152,20.335,18.881,36.47,18.881  c15.699,0,29.298-7.318,35.934-17.99c0,0,5.205-6.561,8.45-7.386c2.553-0.649,4.858-3.81,4.858-6.483v-2.02  C99.115,46.065,96.81,42.904,94.257,42.255z M75.628,37.143c1.808,0,3.267,1.459,3.267,3.266c0,1.808-1.459,3.267-3.267,3.267  c-1.784,0-3.268-1.459-3.268-3.267C72.36,38.602,73.844,37.143,75.628,37.143z M68.005,40.409c0,1.808-1.459,3.267-3.267,3.267  c-1.784,0-3.267-1.459-3.267-3.267c0-1.807,1.482-3.266,3.267-3.266C66.546,37.143,68.005,38.602,68.005,40.409z M62.822,26.493  c1.808,0,3.267,1.459,3.267,3.267c0,1.785-1.459,3.267-3.267,3.267c-1.809,0-3.268-1.482-3.268-3.267  C59.555,27.952,61.014,26.493,62.822,26.493z M39.715,74.537c-1.808,0-3.267-1.459-3.267-3.267c0-1.809,1.458-3.268,3.267-3.268  c1.785,0,3.267,1.459,3.267,3.268C42.982,73.078,41.5,74.537,39.715,74.537z M50.605,74.537c-1.808,0-3.267-1.459-3.267-3.267  c0-1.809,1.459-3.268,3.267-3.268c1.784,0,3.267,1.459,3.267,3.268C53.872,73.078,52.39,74.537,50.605,74.537z M54.11,64.433  c-1.784,0-3.267-1.459-3.267-3.267c0-1.809,1.483-3.268,3.267-3.268c1.808,0,3.29,1.459,3.29,3.268  C57.4,62.974,55.918,64.433,54.11,64.433z M60.884,47.445c1.809,0,3.268,1.459,3.268,3.267s-1.459,3.267-3.268,3.267  c-1.786,0-3.267-1.459-3.267-3.267S59.098,47.445,60.884,47.445z M61.495,74.537c-1.809,0-3.291-1.459-3.291-3.267  c0-1.809,1.482-3.268,3.291-3.268c1.784,0,3.267,1.459,3.267,3.268C64.762,73.078,63.279,74.537,61.495,74.537z M65,64.433  c-1.785,0-3.268-1.459-3.268-3.267c0-1.809,1.482-3.268,3.268-3.268c1.808,0,3.267,1.459,3.267,3.268  C68.267,62.974,66.808,64.433,65,64.433z M68.508,50.712c0-1.808,1.479-3.267,3.266-3.267c1.809,0,3.268,1.459,3.268,3.267  s-1.459,3.267-3.268,3.267C69.987,53.979,68.508,52.521,68.508,50.712z M75.89,64.433c-1.784,0-3.267-1.459-3.267-3.267  c0-1.809,1.482-3.268,3.267-3.268c1.808,0,3.29,1.459,3.29,3.268C79.18,62.974,77.697,64.433,75.89,64.433z M82.664,53.979  c-1.786,0-3.267-1.459-3.267-3.267s1.48-3.267,3.267-3.267c1.809,0,3.268,1.459,3.268,3.267S84.473,53.979,82.664,53.979z"/><text x="0" y="115" fill="#000000" font-size="5px" font-weight="bold" font-family="'Helvetica Neue', Helvetica, Arial-Unicode, Arial, Sans-serif">Created by Luis Prado</text><text x="0" y="120" fill="#000000" font-size="5px" font-weight="bold" font-family="'Helvetica Neue', Helvetica, Arial-Unicode, Arial, Sans-serif">from the Noun Project</text></svg>